<?xml version="1.0" encoding="UTF-8"?>
<svg width="30px" height="30px" viewBox="0 0 30 30" version="1.1" xmlns="http://www.w3.org/2000/svg" xmlns:xlink="http://www.w3.org/1999/xlink">
    <!-- Generator: Sketch 51.3 (57544) - http://www.bohemiancoding.com/sketch -->
    <title>linkedin</title>
    <desc>Created with Sketch.</desc>
    <defs></defs>
    <g id="Page-1" stroke="none" stroke-width="1" fill="none" fill-rule="evenodd">
        <path d="M6.69642857,30 L0.46875,30 L0.46875,9.97767857 L6.69642857,9.97767857 L6.69642857,30 Z M3.61607143,7.23214286 C2.63392823,7.23214286 1.78571463,6.87500034 1.07142857,6.16071429 C0.357142517,5.44642823 0,4.59821463 0,3.61607143 C0,2.63392823 0.357142517,1.78571463 1.07142857,1.07142857 C1.78571463,0.357142517 2.63392823,0 3.61607143,0 C4.59821463,0 5.44642823,0.357142517 6.16071429,1.07142857 C6.87500034,1.78571463 7.23214286,2.63392823 7.23214286,3.61607143 C7.23214286,4.59821463 6.87500034,5.44642823 6.16071429,6.16071429 C5.44642823,6.87500034 4.59821463,7.23214286 3.61607143,7.23214286 Z M30,30 L23.7723214,30 L23.7723214,20.2232143 C23.7723214,18.6160714 23.6383929,17.4553575 23.3705357,16.7410714 C22.8794646,15.5357143 21.9196425,14.9330357 20.4910714,14.9330357 C19.0625003,14.9330357 18.0580361,15.46875 17.4776786,16.5401786 C17.0312497,17.34375 16.8080357,18.5267861 16.8080357,20.0892857 L16.8080357,30 L10.6473214,30 L10.6473214,9.97767857 L16.6071429,9.97767857 L16.6071429,12.7232143 L16.6741071,12.7232143 C17.1205361,11.8303575 17.8348211,11.0937503 18.8169643,10.5133929 C19.8883929,9.7991068 21.1383932,9.44196429 22.5669643,9.44196429 C25.4687497,9.44196429 27.5000003,10.3571432 28.6607143,12.1875 C29.5535711,13.6607143 30,15.9375 30,19.0178571 L30,30 Z" id="linkedin" fill="#313335"></path>
    </g>
</svg>