<?xml version="1.0" encoding="UTF-8"?>
<svg width="16px" height="16px" viewBox="0 0 16 16" version="1.1" xmlns="http://www.w3.org/2000/svg" xmlns:xlink="http://www.w3.org/1999/xlink">
    <!-- Generator: Sketch 51.3 (57544) - http://www.bohemiancoding.com/sketch -->
    <title>codepen</title>
    <desc>Created with Sketch.</desc>
    <defs></defs>
    <g id="Page-1" stroke="none" stroke-width="1" fill="none" fill-rule="evenodd">
        <g id="contact---list" transform="translate(-36.000000, -3.000000)" fill="#313335">
            <g id="contact1">
                <g id="icon" transform="translate(32.000000, 0.000000)">
                    <path d="M18.7216446,8.56252012 C18.9169568,8.67970734 19.0146127,8.85548817 19.0146127,9.08986261 L19.0146127,13.6601642 C19.0146127,13.8945387 18.9169568,14.0703195 18.7216446,14.1875067 L11.8661922,18.7578083 C11.6318178,18.9140578 11.3974433,18.9140578 11.1630689,18.7578083 L4.30761649,14.1875067 C4.11230431,14.0703195 4.01464844,13.8945387 4.01464844,13.6601642 L4.01464844,9.08986261 C4.01464844,8.85548817 4.11230431,8.67970734 4.30761649,8.56252012 L11.1630689,3.99221851 C11.3974433,3.83596903 11.6318178,3.83596903 11.8661922,3.99221851 L18.7216446,8.56252012 Z M12.1591603,5.72073002 L12.1591603,8.73830095 L14.9423568,10.5839997 L17.1982108,9.08986261 L12.1591603,5.72073002 Z M10.8701008,5.72073002 L5.83105036,9.08986261 L8.08690435,10.5839997 L10.8701008,8.73830095 L10.8701008,5.72073002 Z M5.30370786,10.2910316 L5.30370786,12.4589952 L6.91503215,11.3750134 L5.30370786,10.2910316 Z M10.8701008,17.0292968 L10.8701008,14.0117259 L8.08690435,12.1660272 L5.83105036,13.6601642 L10.8701008,17.0292968 Z M11.5146306,12.8984473 L13.7997814,11.3750134 L11.5146306,9.85157954 L9.22947975,11.3750134 L11.5146306,12.8984473 Z M12.1591603,17.0292968 L17.1982108,13.6601642 L14.9423568,12.1660272 L12.1591603,14.0117259 L12.1591603,17.0292968 Z M17.7255532,12.4589952 L17.7255532,10.2910316 L16.114229,11.3750134 L17.7255532,12.4589952 Z" id="codepen"></path>
                </g>
            </g>
        </g>
    </g>
</svg>