<?xml version="1.0" encoding="UTF-8"?>
<svg width="30px" height="25px" viewBox="0 0 30 25" version="1.1" xmlns="http://www.w3.org/2000/svg" xmlns:xlink="http://www.w3.org/1999/xlink">
    <!-- Generator: Sketch 51.3 (57544) - http://www.bohemiancoding.com/sketch -->
    <title>twitter</title>
    <desc>Created with Sketch.</desc>
    <defs></defs>
    <g id="Page-1" stroke="none" stroke-width="1" fill="none" fill-rule="evenodd">
        <path d="M26.8945312,6.09375 C26.933594,6.2500003 26.953125,6.50390625 26.953125,6.85546875 C26.953125,9.66796875 26.269531,12.3828122 24.9023438,15 C23.4960938,17.7734372 21.5234372,19.9804688 18.984375,21.6210938 C16.2109378,23.457031 13.0273435,24.375 9.43359375,24.375 C5.99609345,24.375 2.8515628,23.457031 0,21.6210938 C0.429687202,21.6601565 0.917969048,21.6796875 1.46484375,21.6796875 C4.31640655,21.6796875 6.8749997,20.8007812 9.140625,19.0429688 C7.7734378,19.0429688 6.57226592,18.6425784 5.53710938,17.8417969 C4.50195283,17.0410153 3.7890628,16.0351565 3.3984375,14.8242187 C3.7890628,14.8632815 4.16015625,14.8828125 4.51171875,14.8828125 C5.05859345,14.8828125 5.60546905,14.8242187 6.15234375,14.7070312 C4.74609375,14.3945315 3.57421875,13.6718747 2.63671875,12.5390625 C1.69921875,11.4062503 1.23046875,10.1171878 1.23046875,8.671875 L1.23046875,8.5546875 C2.08984405,9.0625003 3.0078122,9.3359372 3.984375,9.375 C3.1640625,8.7890625 2.5000003,8.0468747 1.9921875,7.1484375 C1.4843747,6.2500003 1.23046875,5.26367158 1.23046875,4.18945312 C1.23046875,3.11523467 1.5234375,2.08984405 2.109375,1.11328125 C3.6328125,3.02734405 5.49804658,4.55078155 7.70507812,5.68359375 C9.91210967,6.81640595 12.2656247,7.44140625 14.765625,7.55859375 C14.6875003,7.08984375 14.6484375,6.62109375 14.6484375,6.15234375 C14.6484375,5.05859345 14.9218753,4.03320283 15.46875,3.07617188 C16.0156247,2.11914092 16.7578125,1.3671872 17.6953125,0.8203125 C18.6328125,0.273437798 19.6484372,0 20.7421875,0 C21.6406247,0 22.4707031,0.17578125 23.2324219,0.52734375 C23.9941406,0.87890625 24.6679688,1.34765625 25.2539062,1.93359375 C26.6601562,1.66015595 27.9687497,1.171875 29.1796875,0.46875 C28.7109375,1.9140628 27.8125003,3.046875 26.484375,3.8671875 C27.65625,3.7109372 28.828125,3.37890655 30,2.87109375 C29.1406247,4.12109345 28.105469,5.1953128 26.8945312,6.09375 Z" id="twitter" fill="#313335"></path>
    </g>
</svg>