<?xml version="1.0" encoding="UTF-8"?>
<svg width="28px" height="22px" viewBox="0 0 28 22" version="1.1" xmlns="http://www.w3.org/2000/svg" xmlns:xlink="http://www.w3.org/1999/xlink">
    <!-- Generator: Sketch 48.2 (47327) - http://www.bohemiancoding.com/sketch -->
    <title></title>
    <desc>Created with Sketch.</desc>
    <defs></defs>
    <g id="Page-1" stroke="none" stroke-width="1" fill="none" fill-rule="evenodd">
        <path d="M27.1919966,3.11604892 C26.4553886,4.18747877 25.5346286,5.14172097 24.4799398,5.91181118 C24.4966809,6.14618646 24.4966809,6.38056174 24.4966809,6.61493702 C24.4966809,13.763383 19.0558262,22 9.11161792,22 C6.0479982,22 3.20201266,21.1127222 0.808036592,19.5725417 C1.24330497,19.622765 1.66183225,19.6395061 2.11384172,19.6395061 C4.64174652,19.6395061 6.96875822,18.7857105 8.82701937,17.3292355 C6.44978439,17.2790122 4.45759451,15.7220907 3.77120977,13.579231 C4.1060316,13.6294543 4.44085342,13.6629365 4.79241634,13.6629365 C5.27790799,13.6629365 5.76339964,13.5959721 6.21540911,13.4787845 C3.73772758,12.9765517 1.87946644,10.8002099 1.87946644,8.17185852 L1.87946644,8.10489415 C2.59933337,8.50668034 3.43638794,8.75779671 4.32366578,8.7912789 C2.86719083,7.8202956 1.91294862,6.16292755 1.91294862,4.28792531 C1.91294862,3.28345983 2.18080609,2.3626998 2.64955664,1.55912742 C5.31139018,4.84038133 9.31251102,6.98324103 13.7991235,7.21761631 C13.7154181,6.81583011 13.6651948,6.39730283 13.6651948,5.97877554 C13.6651948,2.99886128 16.0759119,0.571403027 19.0725673,0.571403027 C20.6294888,0.571403027 22.0357405,1.22430559 23.0234649,2.27899435 C24.2455645,2.04461907 25.4174409,1.5926096 26.4553886,0.97318922 C26.0536024,2.22877107 25.1998067,3.28345983 24.0781536,3.95310349 C25.1663246,3.83591585 26.2210133,3.5345762 27.1919966,3.11604892 Z" id="" fill="#313335"></path>
    </g>
</svg>