<?xml version="1.0" encoding="UTF-8"?>
<svg width="26px" height="26px" viewBox="0 0 26 26" version="1.1" xmlns="http://www.w3.org/2000/svg" xmlns:xlink="http://www.w3.org/1999/xlink">
    <!-- Generator: Sketch 48.2 (47327) - http://www.bohemiancoding.com/sketch -->
    <title></title>
    <desc>Created with Sketch.</desc>
    <defs></defs>
    <g id="Page-1" stroke="none" stroke-width="1" fill="none" fill-rule="evenodd">
        <path d="M5.98549804,8.74886575 L5.98549804,25.3392873 L0.460937879,25.3392873 L0.460937879,8.74886575 L5.98549804,8.74886575 Z M6.33706096,3.62609178 C6.35380205,5.21649547 5.14844347,6.48881841 3.22321796,6.48881841 L3.18973578,6.48881841 C1.33147463,6.48881841 0.142857143,5.21649547 0.142857143,3.62609178 C0.142857143,2.00220592 1.38169791,0.763365157 3.25670014,0.763365157 C5.14844347,0.763365157 6.32031986,2.00220592 6.33706096,3.62609178 Z M14.5401957,11.106935 C15.26696,9.97082449 16.5780118,8.36382065 19.5122999,8.36382065 C23.1451167,8.36382065 25.8571735,10.7410556 25.8571735,15.8303474 L25.8571735,25.3392873 L20.3493544,25.3392873 L20.3493544,16.4665089 C20.3493544,14.2399437 19.5457821,12.7165044 17.5535922,12.7165044 C16.0301529,12.7165044 15.1261339,13.737711 14.7243477,14.7254354 C14.590419,15.0937394 14.5401957,15.579231 14.5401957,16.0814638 L14.5401957,25.3392873 L9.03237667,25.3392873 C9.09934103,10.3057872 9.03237667,8.74886575 9.03237667,8.74886575 L14.5401957,8.74886575 L14.5401957,11.106935 Z" id="" fill="#313335"></path>
    </g>
</svg>