<?xml version="1.0" encoding="UTF-8"?>
<svg width="31px" height="30px" viewBox="0 0 31 30" version="1.1" xmlns="http://www.w3.org/2000/svg" xmlns:xlink="http://www.w3.org/1999/xlink">
    <!-- Generator: Sketch 51.3 (57544) - http://www.bohemiancoding.com/sketch -->
    <title>dribbble</title>
    <desc>Created with Sketch.</desc>
    <defs></defs>
    <g id="Page-1" stroke="none" stroke-width="1" fill="none" fill-rule="evenodd">
        <path d="M15.2490229,0 C17.9506361,0 20.4506358,0.675403533 22.7490229,2.02620968 C25.04741,3.37701582 26.8720071,5.2016129 28.2228132,7.5 C29.5736193,9.7983871 30.2490229,12.2983868 30.2490229,15 C30.2490229,17.7016132 29.5736193,20.2016129 28.2228132,22.5 C26.8720071,24.7983871 25.04741,26.6229842 22.7490229,27.9737903 C20.4506358,29.3245965 17.9506361,30 15.2490229,30 C12.5474097,30 10.04741,29.3245965 7.74902288,27.9737903 C5.45063578,26.6229842 3.6260387,24.7983871 2.27523256,22.5 C0.924426412,20.2016129 0.249022879,17.7016132 0.249022879,15 C0.249022879,12.2983868 0.924426412,9.7983871 2.27523256,7.5 C3.6260387,5.2016129 5.45063578,3.37701582 7.74902288,2.02620968 C10.04741,0.675403533 12.5474097,0 15.2490229,0 Z M25.1683777,6.89516129 C24.7248296,7.5 24.099829,8.1451616 23.2933777,8.83064516 C21.76112,10.1209674 20.0070877,11.1693551 18.0312809,11.9758065 C18.3941842,12.7822578 18.7570874,13.629032 19.1199906,14.516129 C20.9345067,14.2741935 22.9103135,14.2540326 25.04741,14.4556452 C26.1764425,14.5766129 27.1845064,14.7177416 28.0716035,14.8790323 C28.0312806,13.3870965 27.7691842,11.9657255 27.2853132,10.6149194 C26.8014422,9.26411321 26.0957968,8.02419386 25.1683777,6.89516129 Z M23.7167648,5.44354839 C22.1441842,4.03225837 20.349829,3.07459647 18.3337003,2.57056452 C16.3175716,2.06653257 14.2812809,2.05645161 12.2248293,2.54032258 C13.9587006,4.83870968 15.5514422,7.33870937 17.0030551,10.0403226 C18.938539,9.35483902 20.6119264,8.42741905 22.0232164,7.25806452 C22.7893458,6.61290292 23.3538616,6.00806421 23.7167648,5.44354839 Z M9.80547449,3.44758065 C7.99095836,4.29435484 6.45870061,5.50403226 5.2087003,7.0766129 C3.95869999,8.64919355 3.1320877,10.4233868 2.72886159,12.3991935 C3.81757127,12.3991935 5.10789354,12.3387097 6.59982933,12.2177419 C9.38208739,11.9758065 12.0232167,11.5120965 14.5232164,10.8266129 C13.0716035,8.20564547 11.4990229,5.74596774 9.80547449,3.44758065 Z M2.42644223,15 C2.42644223,16.6129035 2.71878064,18.1552422 3.30345836,19.6270161 C3.88813609,21.09879 4.70466835,22.4193551 5.75305514,23.5887097 C6.84176481,21.6935487 8.33370061,19.9798384 10.2288616,18.4475806 C12.2853132,16.7540323 14.4224097,15.6048387 16.6401519,15 C16.3578935,14.2741935 16.0151522,13.5483871 15.6119261,12.8225806 C12.9103129,13.629032 9.9869261,14.1733868 6.84176481,14.4556452 C5.14821643,14.5766129 3.67644254,14.6370968 2.42644223,14.6370968 L2.42644223,15 Z M7.38611965,25.1008065 C9.24095867,26.5927422 11.3276522,27.4697584 13.6462003,27.7318548 C15.9647484,27.9939513 18.1724097,27.6814519 20.2691842,26.7943548 C19.7449903,23.6895164 18.8377322,20.4637094 17.54741,17.1169355 C15.0877322,17.9233868 12.9103129,19.1330642 11.0151519,20.7459677 C9.32160352,22.1572578 8.1119261,23.6088707 7.38611965,25.1008065 Z M22.3861197,25.6451613 C23.8377326,24.6774194 25.04741,23.447581 26.0151519,21.9556452 C26.9828938,20.4637094 27.6078935,18.8306449 27.8901519,17.0564516 C27.1643455,16.8145161 26.2772484,16.6330645 25.2288616,16.5120968 C23.3740226,16.2298384 21.5998293,16.2298384 19.9062809,16.5120968 C21.0756355,19.7379029 21.9022487,22.7822584 22.3861197,25.6451613 Z" id="dribbble" fill="#313335"></path>
    </g>
</svg>