<?xml version="1.0" encoding="UTF-8"?>
<svg width="30px" height="30px" viewBox="0 0 30 30" version="1.1" xmlns="http://www.w3.org/2000/svg" xmlns:xlink="http://www.w3.org/1999/xlink">
    <!-- Generator: Sketch 51.3 (57544) - http://www.bohemiancoding.com/sketch -->
    <title>codepen</title>
    <desc>Created with Sketch.</desc>
    <defs></defs>
    <g id="Page-1" stroke="none" stroke-width="1" fill="none" fill-rule="evenodd">
        <path d="M29.4140277,9.37498867 C29.8046525,9.60936339 29.9999645,9.96092548 29.9999645,10.4296749 L29.9999645,19.5702891 C29.9999645,20.0390385 29.8046525,20.3906006 29.4140277,20.6249753 L15.7031064,29.7655895 C15.234357,30.0780888 14.7656075,30.0780888 14.2968581,29.7655895 L0.585936806,20.6249753 C0.195311971,20.3906006 0,20.0390385 0,19.5702891 L0,10.4296749 C0,9.96092548 0.195311971,9.60936339 0.585936806,9.37498867 L14.2968581,0.234374499 C14.7656075,-0.0781248329 15.234357,-0.0781248329 15.7031064,0.234374499 L29.4140277,9.37498867 Z M16.2890432,3.69140165 L16.2890432,9.72655075 L21.8554429,13.4179526 L26.3671563,10.4296749 L16.2890432,3.69140165 Z M13.7109213,3.69140165 L3.6328082,10.4296749 L8.1445216,13.4179526 L13.7109213,9.72655075 L13.7109213,3.69140165 Z M2.57812195,12.8320158 L2.57812195,17.1679482 L5.80077438,14.999982 L2.57812195,12.8320158 Z M13.7109213,26.3085624 L13.7109213,20.2734133 L8.1445216,16.5820114 L3.6328082,19.5702891 L13.7109213,26.3085624 Z M14.9999822,18.0468534 L19.5702893,14.999982 L14.9999822,11.9531106 L10.4296751,14.999982 L14.9999822,18.0468534 Z M16.2890432,26.3085624 L26.3671563,19.5702891 L21.8554429,16.5820114 L16.2890432,20.2734133 L16.2890432,26.3085624 Z M27.4218425,17.1679482 L27.4218425,12.8320158 L24.1991901,14.999982 L27.4218425,17.1679482 Z" id="codepen" fill="#313335"></path>
    </g>
</svg>