<?xml version="1.0" encoding="UTF-8"?>
<svg width="15px" height="15px" viewBox="0 0 15 15" version="1.1" xmlns="http://www.w3.org/2000/svg" xmlns:xlink="http://www.w3.org/1999/xlink">
    <!-- Generator: Sketch 51.3 (57544) - http://www.bohemiancoding.com/sketch -->
    <title>dribbble</title>
    <desc>Created with Sketch.</desc>
    <defs></defs>
    <g id="Page-1" stroke="none" stroke-width="1" fill="none" fill-rule="evenodd">
        <g id="contact---list" transform="translate(-4.000000, -4.000000)" fill="#313335">
            <g id="contact1">
                <g id="icon">
                    <path d="M11.5146306,4.10940573 C12.8232213,4.10940573 14.0341558,4.43655354 15.1474344,5.09084871 C16.260713,5.74514387 17.1445001,6.62893098 17.7987953,7.74220957 C18.4530904,8.85548817 18.7802382,10.0664226 18.7802382,11.3750134 C18.7802382,12.6836042 18.4530904,13.8945387 17.7987953,15.0078172 C17.1445001,16.1210958 16.260713,17.0048829 15.1474344,17.6591781 C14.0341558,18.3134733 12.8232213,18.6406211 11.5146306,18.6406211 C10.2060398,18.6406211 8.99510531,18.3134733 7.88182672,17.6591781 C6.76854812,17.0048829 5.88476102,16.1210958 5.23046585,15.0078172 C4.57617069,13.8945387 4.24902288,12.6836042 4.24902288,11.3750134 C4.24902288,10.0664226 4.57617069,8.85548817 5.23046585,7.74220957 C5.88476102,6.62893098 6.76854812,5.74514387 7.88182672,5.09084871 C8.99510531,4.43655354 10.2060398,4.10940573 11.5146306,4.10940573 Z M16.3193066,7.44924152 C16.1044635,7.74220957 15.8017296,8.05470898 15.4111056,8.38673929 C14.6689201,9.01173765 13.8193127,9.51954923 12.8622836,9.91017315 C13.0380644,10.3007971 13.2138453,10.7109523 13.3896261,11.140639 C14.2685302,11.0234517 15.2255594,11.0136863 16.260713,11.1113422 C16.8075868,11.1699358 17.2958666,11.2382948 17.7255532,11.3164198 C17.7060219,10.5937651 17.5790692,9.9052902 17.3446948,9.25099504 C17.1103203,8.59669987 16.7685241,7.99611537 16.3193066,7.44924152 Z M15.6161833,6.7461182 C14.8544663,6.06252623 13.9853276,5.59865985 13.0087676,5.35451995 C12.0322076,5.11038006 11.0458817,5.10549711 10.0497903,5.33987155 C10.8896322,6.45315015 11.6611146,7.66408461 12.3642379,8.97267539 C13.3017357,8.64064508 14.1122808,8.1914271 14.7958727,7.62502235 C15.1669657,7.31252295 15.4404024,7.0195549 15.6161833,6.7461182 Z M8.87791809,5.77932363 C7.99901394,6.1894789 7.25682836,6.775415 6.6513609,7.53713194 C6.04589345,8.29884887 5.64550407,9.15822167 5.45019189,10.1152508 C5.97753438,10.1152508 6.60253274,10.085954 7.32518742,10.0273604 C8.67284046,9.91017315 9.95213443,9.68556417 11.1630689,9.35353386 C10.4599456,8.08400578 9.69822864,6.89260222 8.87791809,5.77932363 Z M5.30370786,11.3750134 C5.30370786,12.1562617 5.44530894,12.9033302 5.72851154,13.616219 C6.01171414,14.3291078 6.40722101,14.968755 6.91503215,15.5351597 C7.44237464,14.6171933 8.16502932,13.7871169 9.08299573,13.0449313 C10.0790871,12.2246208 11.1142407,11.6679815 12.1884571,11.3750134 C12.0517385,11.0234517 11.8857236,10.6718901 11.6904114,10.3203284 C10.3818206,10.7109523 8.96580851,10.9746236 7.44237464,11.1113422 C6.6220641,11.1699358 5.90917532,11.1992326 5.30370786,11.1992326 L5.30370786,11.3750134 Z M7.70604589,16.2675799 C8.60448139,16.9902345 9.61522117,17.4150382 10.7382652,17.5419909 C11.8613093,17.6689436 12.9306427,17.517577 13.9462654,17.0878904 C13.6923596,15.5839879 13.2529075,14.0214913 12.6279092,12.4004016 C11.4365056,12.7910255 10.3818206,13.3769616 9.4638542,14.1582099 C8.64354365,14.8418019 8.05760755,15.5449252 7.70604589,16.2675799 Z M14.9716536,16.5312511 C15.6747769,16.0625022 16.260713,15.4668007 16.7294619,14.744146 C17.1982108,14.0214913 17.5009443,13.2304776 17.6376628,12.3711048 C17.2861012,12.2539176 16.8564145,12.1660272 16.3486034,12.1074335 C15.4501679,11.970715 14.5907951,11.970715 13.7704846,12.1074335 C14.3368893,13.6699297 14.7372791,15.1445358 14.9716536,16.5312511 Z" id="dribbble"></path>
                </g>
            </g>
        </g>
    </g>
</svg>