<?xml version="1.0" encoding="UTF-8"?>
<svg width="28px" height="23px" viewBox="0 0 28 23" version="1.1" xmlns="http://www.w3.org/2000/svg" xmlns:xlink="http://www.w3.org/1999/xlink">
    <!-- Generator: Sketch 51.3 (57544) - http://www.bohemiancoding.com/sketch -->
    <title>twitter</title>
    <desc>Created with Sketch.</desc>
    <defs></defs>
    <g id="Page-1" stroke="none" stroke-width="1" fill="none" fill-rule="evenodd">
        <path d="M25.1015625,5.6875 C25.1380211,5.83333361 25.15625,6.0703125 25.15625,6.3984375 C25.15625,9.0234375 24.5182289,11.5572914 23.2421875,14 C21.9296875,16.5885414 20.0885414,18.6484375 17.71875,20.1796875 C15.1302086,21.8932289 12.1588539,22.75 8.8046875,22.75 C5.59635389,22.75 2.66145861,21.8932289 0,20.1796875 C0.401041389,20.2161461 0.856771111,20.234375 1.3671875,20.234375 C4.02864611,20.234375 6.41666639,19.4140625 8.53125,17.7734375 C7.25520861,17.7734375 6.13411486,17.3997399 5.16796875,16.6523438 C4.20182264,15.9049476 3.53645861,14.9661461 3.171875,13.8359375 C3.53645861,13.8723961 3.8828125,13.890625 4.2109375,13.890625 C4.72135389,13.890625 5.23177111,13.8359375 5.7421875,13.7265625 C4.4296875,13.4348961 3.3359375,12.7604164 2.4609375,11.703125 C1.5859375,10.6458336 1.1484375,9.44270861 1.1484375,8.09375 L1.1484375,7.984375 C1.95052111,8.45833361 2.80729139,8.71354139 3.71875,8.75 C2.953125,8.203125 2.33333361,7.51041639 1.859375,6.671875 C1.38541639,5.83333361 1.1484375,4.91276014 1.1484375,3.91015625 C1.1484375,2.90755236 1.421875,1.95052111 1.96875,1.0390625 C3.390625,2.82552111 5.13151014,4.24739611 7.19140625,5.3046875 C9.25130236,6.36197889 11.4479164,6.9453125 13.78125,7.0546875 C13.7083336,6.6171875 13.671875,6.1796875 13.671875,5.7421875 C13.671875,4.72135389 13.9270836,3.76432264 14.4375,2.87109375 C14.9479164,1.97786486 15.640625,1.27604139 16.515625,0.765625 C17.390625,0.255208611 18.3385414,0 19.359375,0 C20.1979164,0 20.9726562,0.1640625 21.6835938,0.4921875 C22.3945312,0.8203125 23.0234375,1.2578125 23.5703125,1.8046875 C24.8828125,1.54947889 26.1041664,1.09375 27.234375,0.4375 C26.796875,1.78645861 25.9583336,2.84375 24.71875,3.609375 C25.8125,3.46354139 26.90625,3.15364611 28,2.6796875 C27.1979164,3.84635389 26.2317711,4.84895861 25.1015625,5.6875 Z" id="twitter" fill="#313335"></path>
    </g>
</svg>