<?xml version="1.0" encoding="UTF-8" standalone="no"?>
<!-- Generator: Adobe Illustrator 16.0.0, SVG Export Plug-In . SVG Version: 6.00 Build 0)  -->
<!DOCTYPE svg  PUBLIC '-//W3C//DTD SVG 1.1//EN'  'http://www.w3.org/Graphics/SVG/1.1/DTD/svg11.dtd'>
<svg id="Layer_1" xmlns="http://www.w3.org/2000/svg" xml:space="preserve" height="46px" viewBox="0 0 46 46" width="46px" version="1.1" y="0px" x="0px" xmlns:xlink="http://www.w3.org/1999/xlink" enable-background="new 0 0 46 46">
	<path id="Behance" d="m35.331 17.578h-7.304v-1.813h7.306v1.813h-0.002zm-12.164 7.44c0.472 0.729 0.708 1.615 0.708 2.655 0 1.075-0.268 2.041-0.807 2.894-0.343 0.565-0.77 1.043-1.283 1.426-0.577 0.443-1.261 0.748-2.048 0.91-0.788 0.162-1.641 0.244-2.56 0.244h-8.167v-18.136h8.759c2.207 0.036 3.772 0.676 4.696 1.931 0.555 0.771 0.83 1.695 0.83 2.77 0 1.109-0.278 1.996-0.838 2.67-0.312 0.378-0.772 0.722-1.382 1.032 0.924 0.338 1.625 0.871 2.092 1.604zm-9.975-2.857h3.837c0.789 0 1.426-0.149 1.918-0.45 0.49-0.299 0.735-0.831 0.735-1.595 0-0.843-0.324-1.402-0.973-1.672-0.56-0.188-1.274-0.285-2.142-0.285h-3.375v4.002zm6.86 5.253c0-0.943-0.385-1.594-1.154-1.943-0.429-0.197-1.035-0.301-1.812-0.307h-3.893v4.834h3.833c0.787 0 1.396-0.104 1.836-0.318 0.793-0.396 1.19-1.149 1.19-2.266zm17.989-2.951c0.09 0.596 0.128 1.456 0.111 2.58h-9.459c0.055 1.305 0.504 2.221 1.359 2.741 0.514 0.325 1.141 0.487 1.872 0.487 0.771 0 1.4-0.195 1.884-0.595 0.266-0.215 0.496-0.515 0.699-0.894h3.467c-0.091 0.771-0.51 1.553-1.259 2.348-1.163 1.264-2.791 1.898-4.886 1.898-1.73 0-3.254-0.535-4.577-1.6-1.317-1.068-1.979-2.802-1.979-5.205 0-2.254 0.594-3.979 1.787-5.18 1.197-1.203 2.742-1.802 4.646-1.802 1.13 0 2.146 0.202 3.057 0.607 0.903 0.406 1.653 1.046 2.24 1.924 0.536 0.778 0.878 1.673 1.038 2.691zm-3.413 0.339c-0.062-0.901-0.364-1.585-0.905-2.053-0.537-0.468-1.211-0.704-2.015-0.704-0.872 0-1.547 0.252-2.026 0.745-0.481 0.494-0.781 1.164-0.904 2.011l5.85 0.001z" fill="#303030"/>
</svg>
