<?xml version="1.0" encoding="UTF-8"?>
<svg width="26px" height="26px" viewBox="0 0 26 26" version="1.1" xmlns="http://www.w3.org/2000/svg" xmlns:xlink="http://www.w3.org/1999/xlink">
    <!-- Generator: Sketch 51.3 (57544) - http://www.bohemiancoding.com/sketch -->
    <title>linkedin</title>
    <desc>Created with Sketch.</desc>
    <defs></defs>
    <g id="Page-1" stroke="none" stroke-width="1" fill="none" fill-rule="evenodd">
        <path d="M5.80357143,26 L0.40625,26 L0.40625,8.64732143 L5.80357143,8.64732143 L5.80357143,26 Z M3.13392857,6.26785714 C2.2827378,6.26785714 1.54761934,5.95833363 0.928571429,5.33928571 C0.309523514,4.7202378 0,3.98511934 0,3.13392857 C0,2.2827378 0.309523514,1.54761934 0.928571429,0.928571429 C1.54761934,0.309523514 2.2827378,0 3.13392857,0 C3.98511934,0 4.7202378,0.309523514 5.33928571,0.928571429 C5.95833363,1.54761934 6.26785714,2.2827378 6.26785714,3.13392857 C6.26785714,3.98511934 5.95833363,4.7202378 5.33928571,5.33928571 C4.7202378,5.95833363 3.98511934,6.26785714 3.13392857,6.26785714 Z M26,26 L20.6026786,26 L20.6026786,17.5267857 C20.6026786,16.1339286 20.4866071,15.1279765 20.2544643,14.5089286 C19.8288693,13.4642857 18.9970235,12.9419643 17.7589286,12.9419643 C16.5208336,12.9419643 15.6502979,13.40625 15.1473214,14.3348214 C14.7604164,15.03125 14.5669643,16.0565479 14.5669643,17.4107143 L14.5669643,26 L9.22767857,26 L9.22767857,8.64732143 L14.3928571,8.64732143 L14.3928571,11.0267857 L14.4508929,11.0267857 C14.8377979,10.2529765 15.4568449,9.61458363 16.3080357,9.11160714 C17.2366071,8.49255923 18.3199408,8.18303571 19.5580357,8.18303571 C22.0729164,8.18303571 23.8333336,8.97619077 24.8392857,10.5625 C25.6130949,11.8392857 26,13.8125 26,16.4821429 L26,26 Z" id="linkedin" fill="#313335"></path>
    </g>
</svg>