<?xml version="1.0" encoding="UTF-8" standalone="no"?>
<!-- Generator: Adobe Illustrator 16.0.0, SVG Export Plug-In . SVG Version: 6.00 Build 0)  -->
<!DOCTYPE svg  PUBLIC '-//W3C//DTD SVG 1.1//EN'  'http://www.w3.org/Graphics/SVG/1.1/DTD/svg11.dtd'>
<svg id="Layer_1" style="enable-background:new 0 0 46 46" xmlns="http://www.w3.org/2000/svg" xml:space="preserve" height="46px" viewBox="0 0 46 46" width="46px" version="1.1" y="0px" x="0px" xmlns:xlink="http://www.w3.org/1999/xlink">
<path fill-rule="evenodd" clip-rule="evenodd" d="m27.85 35.103c-1.634-0.177-1.841-0.395-1.844-1.995-0.002-1.218 0-2.436 0-3.653h-0.362v5.818c-1.369-0.07-1.717-0.389-1.735-1.654-0.016-1.099 0.003-2.197-0.01-3.296-0.004-0.321-0.06-0.641-0.092-0.962-0.122 0.007-0.243 0.014-0.364 0.021 0 1.347 0.004 2.694-0.001 4.041-0.005 1.523-0.282 1.797-1.806 1.863v-5.779c-0.088-0.007-0.177-0.013-0.266-0.019-0.028 0.525-0.07 1.051-0.08 1.577-0.014 0.779 0.005 1.56-0.007 2.339-0.02 1.318-0.405 1.703-1.75 1.812v-4.236c-0.294-0.021-0.633-0.081-0.969-0.063-1.694 0.089-2.925-0.597-3.744-2.096-0.465-0.852-1.025-1.652-1.412-2.695 0.69 0.49 1.437 0.919 2.058 1.486 0.878 0.802 1.804 1.304 3.038 1.261 0.681-0.023 1.119-0.127 1.321-0.868 0.114-0.419 0.466-0.773 0.764-1.238-0.699-0.172-1.374-0.318-2.038-0.505-1.542-0.434-2.823-1.25-3.853-2.506-0.263-0.321-0.811-0.577-1.226-0.574-1.158 0.008-2.315 0.168-3.498 0.105 1.352-0.155 2.704-0.31 4.055-0.464 0.007-0.068 0.014-0.137 0.021-0.206h-4.27c0-0.112-0.001-0.224-0.002-0.335h3.93c0-1.674-0.015-3.217 0.013-4.76 0.005-0.305 0.097-0.673 0.285-0.9 1.073-1.293 1.038-2.793 1.021-4.355-0.02-1.784 0.249-1.918 1.938-1.454 0.307 0.084 0.651 0.138 0.897 0.317 1.34 0.976 2.807 0.811 4.336 0.684 1.292-0.107 2.608 0.115 3.915 0.134 0.463 0.007 0.945-0.104 1.389-0.251 0.935-0.312 1.847-0.691 2.772-1.029 0.708-0.259 1.139 0.027 1.122 0.756-0.047 2.102 0.893 3.895 1.551 5.81 0.518 1.504 0.327 3.251 0.461 5.025h3.901c0.001 0.095 0.002 0.19 0.002 0.285h-4.344c-0.003 0.094-0.007 0.188-0.011 0.283 1.359 0.144 2.718 0.289 4.077 0.433-0.007 0.065-0.014 0.13-0.02 0.196-1.079-0.102-2.158-0.199-3.236-0.307-0.683-0.068-1.181 0.102-1.595 0.744-0.954 1.481-2.455 2.192-4.105 2.631-0.373 0.099-0.745 0.197-1.207 0.319 1.158 1.963 0.557 4.087 0.716 6.136 0.056 0.688 0.17 1.372 0.264 2.124z" fill="#333"/>
</svg>
